<?xml version="1.0" encoding="UTF-8"?>
<svg width="22px" height="8px" viewBox="0 0 22 8" version="1.1" xmlns="http://www.w3.org/2000/svg" xmlns:xlink="http://www.w3.org/1999/xlink">
    <title>icon/arrow备份 7</title>
    <g id="UI" stroke="none" stroke-width="1" fill="none" fill-rule="evenodd">
        <g id="Product/normal" transform="translate(-442.000000, -1242.000000)">
            <g id="Category" transform="translate(0.000000, 889.000000)">
                <g id="编组-7" transform="translate(273.000000, 56.000000)">
                    <g id="编组-4" transform="translate(1.000000, 94.000000)">
                        <g id="编组-2" transform="translate(161.000000, 189.000000)">
                            <rect id="矩形" x="0" y="0" width="36" height="36"></rect>
                            <circle id="椭圆形" cx="18" cy="18" r="18"></circle>
                            <path d="M23.5376218,14 C23.7410263,14 23.9395942,14.062028 24.1068318,14.1778078 L28.5722331,17.1734502 C29.0263173,17.4878162 29.1395813,18.1107682 28.8252153,18.5648524 C28.7567811,18.6637018 28.6710824,18.7494004 28.5722331,18.8178346 L24.1068318,21.8181288 C23.6527476,22.1324948 23.0297956,22.0192308 22.7154296,21.5651466 C22.5996498,21.397909 22.5376218,21.1993411 22.5376218,20.9959366 L22.5366218,18.9952107 L8,18.9956424 C7.44771525,18.9956424 7,18.5479272 7,17.9956424 C7,17.4433577 7.44771525,16.9956424 8,16.9956424 L22.5366218,16.9952107 L22.5376218,15 C22.5376218,14.4477153 22.985337,14 23.5376218,14 Z" id="路径" fill="#FFFFFF"></path>
                        </g>
                    </g>
                </g>
            </g>
        </g>
    </g>
</svg>