<?xml version="1.0" encoding="UTF-8"?>
<svg width="36px" height="36px" viewBox="0 0 36 36" version="1.1" xmlns="http://www.w3.org/2000/svg" xmlns:xlink="http://www.w3.org/1999/xlink">
    <title>编组 2</title>
    <g id="控件" stroke="none" stroke-width="1" fill="none" fill-rule="evenodd">
        <g id="编组-2">
            <rect id="矩形" x="0" y="0" width="36" height="36"></rect>
            <circle id="椭圆形" cx="18" cy="18" r="18"></circle>
            <path d="M5.07523603,7.59840132 C5.17067208,7.36081004 5.35760869,7.17155466 5.59400547,7.07319705 C5.83040225,6.97483944 6.09641402,6.97563658 6.33221708,7.0754092 L9.59616786,8.47138816 C9.8599739,8.58528607 10.0598649,8.81007191 10.1421596,9.08537889 L10.8101495,11.3033455 L28.0398898,11.3033455 C28.3438852,11.3033455 28.6298809,11.4493432 28.8108781,11.6983395 C28.9918754,11.9473357 29.0468746,12.2683309 28.9588759,12.5653264 L26.5199127,20.7382032 C26.4012741,21.1472336 26.0278069,21.4295715 25.6019265,21.4321927 L13.2551127,21.4321927 L12.8191193,23.2541653 L25.5659271,23.2541653 C26.0959191,23.2541653 26.5259126,23.6921587 26.5259126,24.2321505 C26.5259126,24.7721424 26.0959191,25.2091358 25.5659271,25.2091358 L11.5951377,25.2091358 C11.2996004,25.2083066 11.0211352,25.0705513 10.8411491,24.8361414 C10.6586505,24.5986415 10.5932327,24.2913984 10.6631518,24.000154 L11.5061391,20.4802071 L9.18017414,12.5643264 L8.43718533,10.0963636 L5.58822829,8.87838201 C5.09725947,8.66254777 4.86955807,8.09329427 5.07623602,7.59840132 L5.07523603,7.59840132 Z M11.3901408,13.258316 L13.2171133,19.4762222 L24.8919372,19.4762222 L26.7459093,13.258316 L11.3901408,13.258316 Z M26.2719164,27.5311008 C26.2719164,28.3410885 25.6279261,28.9980786 24.8319381,28.9980786 C24.0369501,28.9980786 23.3919598,28.3410885 23.3919598,27.5311008 C23.3919598,26.721113 24.0369501,26.0651229 24.8319381,26.0651229 C25.6279261,26.0651229 26.2719164,26.721113 26.2719164,27.5311008 Z M12.3261267,28.9980786 C13.1221147,28.9980786 13.766105,28.3410885 13.766105,27.5311008 C13.766105,26.721113 13.1221147,26.0651229 12.3261267,26.0651229 C11.5311387,26.0651229 10.8861484,26.721113 10.8861484,27.5311008 C10.8861484,28.3410885 11.5311387,28.9980786 12.3261267,28.9980786 Z" id="形状" fill="#222222" fill-rule="nonzero"></path>
        </g>
    </g>
</svg>