<?xml version="1.0" encoding="UTF-8"?>
<svg width="28px" height="28px" viewBox="0 0 28 28" version="1.1" xmlns="http://www.w3.org/2000/svg" xmlns:xlink="http://www.w3.org/1999/xlink">
    <title>list/mark/icon+text/failed</title>
    <g id="list/mark/icon+text/failed" stroke="none" stroke-width="1" fill="none" fill-rule="evenodd">
        <circle id="椭圆形" fill="#FFE7E5" cx="14" cy="14" r="12"></circle>
        <path d="M9,9 C9.36048396,8.63951604 9.92771502,8.6117865 10.3200062,8.91681139 L10.4142136,9 L13.9491068,12.5351068 L17.4852814,9 C17.8758057,8.60947571 18.5089706,8.60947571 18.8994949,9 C19.2900192,9.39052429 19.2900192,10.0236893 18.8994949,10.4142136 L15.3641068,13.9491068 L18.8994949,17.4852814 C19.2599789,17.8457653 19.2877084,18.4129964 18.9826835,18.8052876 L18.8994949,18.8994949 C18.539011,19.2599789 17.9717799,19.2877084 17.5794887,18.9826835 L17.4852814,18.8994949 L13.9491068,15.3641068 L10.4142136,18.8994949 C10.0236893,19.2900192 9.39052429,19.2900192 9,18.8994949 C8.60947571,18.5089706 8.60947571,17.8758057 9,17.4852814 L12.5351068,13.9491068 L9,10.4142136 C8.63951604,10.0537296 8.6117865,9.48649854 8.91681139,9.09420734 L9,9 Z" id="路径" fill="#F9423A"></path>
    </g>
</svg>