<?xml version="1.0" encoding="UTF-8"?>
<svg width="36px" height="36px" viewBox="0 0 36 36" version="1.1" xmlns="http://www.w3.org/2000/svg" xmlns:xlink="http://www.w3.org/1999/xlink" style="background: #F6F6F9;">
    <title>icon/connected备份</title>
    <g id="icon/connected备份" stroke="none" stroke-width="1" fill="none" fill-rule="evenodd">
        <rect fill="#F6F6F9" x="0" y="0" width="36" height="36"></rect>
        <path d="M15.2320508,10.5717968 L23.2320508,24.4282032 C23.5081932,24.9064959 23.344318,25.5180863 22.8660254,25.7942286 C22.3877328,26.070371 21.7761424,25.9064959 21.5,25.4282032 L13.5,11.5717968 C13.2238576,11.0935041 13.3877328,10.4819137 13.8660254,10.2057714 C14.344318,9.92962899 14.9559084,10.0935041 15.2320508,10.5717968 Z M12.8638771,13.327681 C13.1889801,13.774141 13.0906008,14.3996163 12.6441408,14.7247193 C11.6218961,15.4690968 11,16.6783013 11,18 C11,20.1461157 12.6283329,21.8880385 14.6629822,21.9948128 L14.8611111,22 L16.25,22 C16.8022847,22 17.25,22.4477153 17.25,23 C17.25,23.5128358 16.8639598,23.9355072 16.3666211,23.9932723 L16.25,24 L14.8611111,24 C11.6177061,24 9,21.3075023 9,18 C9,16.0356075 9.93024,14.2268643 11.4668388,13.1079447 C11.9132988,12.7828417 12.5387742,12.881221 12.8638771,13.327681 Z M21.3888889,12 C24.6322939,12 27.25,14.6924977 27.25,18 C27.25,19.8834343 26.3952012,21.6261662 24.9634718,22.7553764 C24.5298307,23.0973907 23.9010377,23.0231125 23.5590233,22.5894714 C23.217009,22.1558302 23.2912872,21.5270372 23.7249283,21.1850229 C24.6783871,20.4330265 25.25,19.2676434 25.25,18 C25.25,15.8538843 23.6216671,14.1119615 21.5870178,14.0051872 L21.3888889,14 L20,14 C19.4477153,14 19,13.5522847 19,13 C19,12.4871642 19.3860402,12.0644928 19.8833789,12.0067277 L20,12 L21.3888889,12 Z" id="形状" fill="#222222" fill-rule="nonzero"></path>
    </g>
</svg>