<?xml version="1.0" encoding="UTF-8"?>
<svg width="36px" height="36px" viewBox="0 0 36 36" version="1.1" xmlns="http://www.w3.org/2000/svg" xmlns:xlink="http://www.w3.org/1999/xlink" style="background: #0EBA9A;">
    <title>icon/connected</title>
    <g id="icon/connected" stroke="none" stroke-width="1" fill="none" fill-rule="evenodd">
        <rect fill="#0EBA9A" x="0" y="0" width="36" height="36"></rect>
        <path d="M21.3888889,12 C24.6322939,12 27.25,14.6924977 27.25,18 C27.25,21.2323318 24.7499284,23.8772961 21.6090372,23.9958521 L21.3888889,24 L20,24 C19.4477153,24 19,23.5522847 19,23 C19,22.4871642 19.3860402,22.0644928 19.8833789,22.0067277 L20,22 L21.3888889,22 C23.514919,22 25.25,20.2153452 25.25,18 C25.25,15.8538843 23.6216671,14.1119615 21.5870178,14.0051872 L21.3888889,14 L20,14 C19.4477153,14 19,13.5522847 19,13 C19,12.4871642 19.3860402,12.0644928 19.8833789,12.0067277 L20,12 L21.3888889,12 Z M16.25,12 C16.8022847,12 17.25,12.4477153 17.25,13 C17.25,13.5128358 16.8639598,13.9355072 16.3666211,13.9932723 L16.25,14 L14.8611111,14 C12.735081,14 11,15.7846548 11,18 C11,20.1461157 12.6283329,21.8880385 14.6629822,21.9948128 L14.8611111,22 L16.25,22 C16.8022847,22 17.25,22.4477153 17.25,23 C17.25,23.5128358 16.8639598,23.9355072 16.3666211,23.9932723 L16.25,24 L14.8611111,24 C11.6177061,24 9,21.3075023 9,18 C9,14.7676682 11.5000716,12.1227039 14.6409628,12.0041479 L14.8611111,12 L16.25,12 Z M21,17 C21.5522847,17 22,17.4477153 22,18 C22,18.5522847 21.5522847,19 21,19 L15,19 C14.4477153,19 14,18.5522847 14,18 C14,17.4477153 14.4477153,17 15,17 L21,17 Z" id="形状" fill="#FFFFFF" fill-rule="nonzero"></path>
    </g>
</svg>