<?xml version="1.0" encoding="UTF-8"?>
<svg width="22px" height="23px" viewBox="0 0 22 23" version="1.1" xmlns="http://www.w3.org/2000/svg" xmlns:xlink="http://www.w3.org/1999/xlink">
    <title>icon/store备份</title>
    <g id="UI" stroke="none" stroke-width="1" fill="none" fill-rule="evenodd">
        <g id="Guide-page/my-store-2" transform="translate(-787.000000, -337.000000)" fill="#928FA5" fill-rule="nonzero">
            <g id="my-stoer-1" transform="translate(274.000000, 207.000000)">
                <g id="store-2备份" transform="translate(476.000000, 71.000000)">
                    <g id="icon/store备份" transform="translate(30.000000, 53.000000)">
                        <path d="M24.1178486,6 C25.7088196,6 26.7919117,7.01972695 27.3430006,8.56444962 L27.394,8.722 L27.6860534,9.57668401 L28.1093245,10.8539963 L28.866377,13.1973243 C29.3380576,14.9381377 28.5245052,16.7200817 27.0009234,17.5579235 L27.0012916,20.3871169 L27,25 L26.9953148,25.2036559 C26.9019689,27.2285317 25.4245254,28.8896621 23.52847,28.9947248 L23.3375049,29 L15.4073515,29.001104 L14.4340642,27.0008674 L23.3375049,27 L23.4700185,26.9935469 C24.2588444,26.9165684 24.9262218,26.1591734 24.9942869,25.1673909 L25,25 L24.9995038,18.0433538 C24.6330761,18.0336047 24.2742246,17.972435 23.9323728,17.8652223 C23.8360215,17.8350018 23.7411548,17.8011792 23.6478427,17.7638296 C23.1163787,17.5511049 22.6352345,17.2237812 22.2434934,16.8041166 C21.9693101,16.510983 21.7390762,16.1727701 21.5656347,15.7970458 C20.9908356,17.0915655 19.7164918,18.0130823 18.2158637,18.0941819 L18,18.1 C16.4064605,18.1 15.0365358,17.1532092 14.4340642,15.7974347 C14.2609238,16.1727701 14.0306899,16.510983 13.7568925,16.8041317 C13.3647655,17.2237812 12.8836213,17.5511049 12.351939,17.7639079 C12.2588452,17.8011792 12.1639785,17.8350018 12.0677672,17.8651778 C11.7257754,17.972435 11.3669239,18.0336047 11.0004962,18.0433538 L11,25 C11,26.0729184 11.6973319,26.9122918 12.5299815,26.9935469 L12.6624951,27 L15.4073515,27.0008674 L16.9561513,29.001104 L12.6624951,29 C10.6755087,29 9.10114264,27.2960276 9.00468518,25.2036559 L9,25 L9,20.387 L8.99907658,17.5579235 C7.53409414,16.7523064 6.72557372,15.0738137 7.08486932,13.3983138 L7.13362303,13.1973243 L7.89067552,10.8539963 L8.31394657,9.57668401 L8.605,8.722 L8.65699941,8.56444962 C9.1841279,7.08688881 10.1980042,6.08966434 11.6775156,6.00574229 L11.8821514,6 L24.1178486,6 Z M14.4500038,13.7960819 C15.1315271,13.8012505 15.8104868,14.1444365 16.1830453,14.8233359 L16.3326315,15.1257673 C16.4878727,15.4085306 16.7141174,15.6439433 16.9857352,15.8124861 C17.04895,15.8517881 17.1144135,15.8872583 17.1819885,15.9188887 C17.3811613,16.0121733 17.5989906,16.0721138 17.8271109,16.0923586 L18,16.1 C18.2909287,16.1 18.5690455,16.0354945 18.8182925,15.9187129 C18.8855865,15.8872583 18.95105,15.8517881 19.0140828,15.8127208 C19.2858826,15.6439433 19.5121273,15.4085306 19.6673685,15.1257673 L19.7365571,14.9859633 C20.085073,14.1992345 20.8160481,13.8016481 21.5499962,13.7960819 C21.6155899,13.7960317 21.6786066,13.7984853 21.7414032,13.8038288 C21.8731288,13.814849 22.0034423,13.8387573 22.1305927,13.8753146 C22.6002939,14.0107359 23.0251188,14.3165636 23.2978101,14.7941042 L23.4549785,15.0997035 C23.5948822,15.344829 23.7881541,15.550425 24.0155461,15.7065433 C24.0672281,15.7421114 24.1207852,15.7750845 24.1758785,15.8053756 L24.2688022,15.8531987 C24.332635,15.8839167 24.398074,15.9110703 24.4649691,15.9345993 C24.6736142,16.0079539 24.8960328,16.0460362 25.122924,16.0439773 L25.2818106,16.0359633 C25.3881261,16.0261929 25.4949174,16.0074766 25.6012096,15.9793116 C26.5598859,15.7252839 27.1411805,14.7990197 26.9694166,13.8674151 L26.943,13.753 L26.0335163,11.0084435 L25.5164364,9.4081938 C25.1919765,8.47266709 24.7745294,8.05676364 24.2352775,8.00546774 L24.1178486,8 L11.8821514,8 C11.2855803,8 10.8311992,8.40584375 10.4835636,9.4081938 L9.96648369,11.0084435 L9.057,13.753 L9.03058342,13.8674151 C8.8588195,14.7990197 9.44011415,15.7252839 10.3987904,15.9793116 C10.5582287,16.0215591 10.71879,16.042547 10.8771841,16.0439723 L11.0345753,16.0389601 C11.206685,16.0264163 11.3748345,15.9909209 11.534648,15.9347356 C11.601926,15.9110703 11.667365,15.8839167 11.7310277,15.8533036 L11.8241901,15.8052933 C11.8792148,15.7750845 11.9327719,15.7421114 11.9845662,15.7065732 C12.2118459,15.550425 12.4051178,15.344829 12.5450215,15.0997035 L12.6170745,14.959646 C12.8810297,14.386629 13.3475171,14.0257827 13.866947,13.8760753 C13.9965577,13.8387573 14.1268712,13.814849 14.2581547,13.8035731 L14.3528715,13.7979488 L14.4500038,13.7960819 Z" id="形状"></path>
                    </g>
                </g>
            </g>
        </g>
    </g>
</svg>