<?xml version="1.0" encoding="UTF-8"?>
<svg width="31px" height="31px" viewBox="0 0 31 31" version="1.1" xmlns="http://www.w3.org/2000/svg" xmlns:xlink="http://www.w3.org/1999/xlink">
    <title>icon/arrow备份 2</title>
    <g id="UI" stroke="none" stroke-width="1" fill="none" fill-rule="evenodd">
        <g id="Guide-page/my-store-1" transform="translate(-1365.000000, -401.000000)">
            <g id="my-stoer-1" transform="translate(624.000000, 206.000000)">
                <g id="icon/arrow备份-2" transform="translate(703.000000, 157.000000)">
                    <g id="编组-2">
                        <rect id="矩形" x="0" y="0" width="108" height="108"></rect>
                        <circle id="椭圆形" cx="54" cy="54" r="54"></circle>
                    </g>
                    <path d="M44.1421356,41.3137085 C44.5326599,40.9231842 45.1658249,40.9231842 45.5563492,41.3137085 L45.5563492,41.3137085 L53.3342424,49.0922424 L61.1126984,41.3137085 C61.5032227,40.9231842 62.1363876,40.9231842 62.5269119,41.3137085 L65.3553391,44.1421356 C65.7458634,44.5326599 65.7458634,45.1658249 65.3553391,45.5563492 L57.5772424,53.3342424 L65.3553391,61.1126984 C65.715823,61.4731823 65.7435526,62.0404134 65.4385277,62.4327046 L65.3553391,62.5269119 L62.5269119,65.3553391 C62.1363876,65.7458634 61.5032227,65.7458634 61.1126984,65.3553391 L61.1126984,65.3553391 L53.3342424,57.5772424 L45.5563492,65.3553391 C45.1658249,65.7458634 44.5326599,65.7458634 44.1421356,65.3553391 L41.3137085,62.5269119 C40.9231842,62.1363876 40.9231842,61.5032227 41.3137085,61.1126984 L49.0922424,53.3342424 L41.3137085,45.5563492 C40.9532245,45.1958652 40.925495,44.6286342 41.2305199,44.236343 L41.3137085,44.1421356 Z" id="形状结合" fill-opacity="0.5" fill="#928FA5" transform="translate(53.334524, 53.334524) rotate(45.000000) translate(-53.334524, -53.334524) "></path>
                </g>
            </g>
        </g>
    </g>
</svg>