<?xml version="1.0" encoding="UTF-8"?>
<svg width="36px" height="36px" viewBox="0 0 36 36" version="1.1" xmlns="http://www.w3.org/2000/svg" xmlns:xlink="http://www.w3.org/1999/xlink">
    <title>icon/rename</title>
    <g id="icon/rename" stroke="none" stroke-width="1" fill="none" fill-rule="evenodd">
        <path d="M28,27 C28.5522847,27 29,27.4477153 29,28 C29,28.5522847 28.5522847,29 28,29 L8,29 C7.44771525,29 7,28.5522847 7,28 C7,27.4477153 7.44771525,27 8,27 L28,27 Z M26.104603,7.43311042 C27.3826825,8.71118992 27.3826825,10.7833662 26.104603,12.0614457 L14.236598,23.9294507 C13.8276579,24.3383909 13.3092327,24.6204133 12.7437362,24.7415652 L9.23084475,25.4941665 C8.69081431,25.6098625 8.15924298,25.2658715 8.04354695,24.7258411 C8.01396242,24.5877504 8.01396242,24.4449594 8.04354695,24.3068687 L8.79614823,20.7939772 C8.9173001,20.2284807 9.19932256,19.7100556 9.6082627,19.3011154 L21.4762677,7.43311042 C22.7543472,6.15503092 24.8265235,6.15503092 26.104603,7.43311042 Z M20.661,11.0755508 L11.0224763,20.715329 C10.9134256,20.8243797 10.8314506,20.9567872 10.7823461,21.1018996 L10.7517714,21.2129496 L10.3232196,23.2147243 L12.3247638,22.785942 C12.4755629,22.7536348 12.6163201,22.6870086 12.7363834,22.5918579 L12.8223844,22.5152372 L22.461,12.8755508 L20.661,11.0755508 Z M22.9871427,8.75995527 L22.8904813,8.84732398 L22.075,9.66155079 L23.875,11.4615508 L24.6903894,10.6472322 C25.1874204,10.1502012 25.1874204,9.3443549 24.6903894,8.84732398 C24.224423,8.3813575 23.4870367,8.35223459 22.9871427,8.75995527 Z" id="形状" fill="#222222"></path>
    </g>
</svg>