<?xml version="1.0" encoding="UTF-8"?>
<svg width="36px" height="36px" viewBox="0 0 36 36" version="1.1" xmlns="http://www.w3.org/2000/svg" xmlns:xlink="http://www.w3.org/1999/xlink">
    <title>icon/delete</title>
    <g id="icon/delete" stroke="none" stroke-width="1" fill="none" fill-rule="evenodd">
        <path d="M20,6 C21.0543618,6 21.9181651,6.81587779 21.9945143,7.85073766 L22,8 L22,9 L27,9 C27.5522847,9 28,9.44771525 28,10 C28,10.5522847 27.5522847,11 27,11 L26,11 L26,26 C26,27.6568542 24.6568542,29 23,29 L13,29 C11.3431458,29 10,27.6568542 10,26 L10,11 L9,11 C8.44771525,11 8,10.5522847 8,10 C8,9.44771525 8.44771525,9 9,9 L14,9 L14,8 C14,6.9456382 14.8158778,6.08183488 15.8507377,6.00548574 L16,6 L20,6 Z M24,11 L12,11 L12,26 C12,26.5128358 12.3860402,26.9355072 12.8833789,26.9932723 L13,27 L23,27 C23.5128358,27 23.9355072,26.6139598 23.9932723,26.1166211 L24,26 L24,11 Z M16,15 C16.5522847,15 17,15.4477153 17,16 L17,22 C17,22.5522847 16.5522847,23 16,23 C15.4477153,23 15,22.5522847 15,22 L15,16 C15,15.4477153 15.4477153,15 16,15 Z M20,15 C20.5522847,15 21,15.4477153 21,16 L21,22 C21,22.5522847 20.5522847,23 20,23 C19.4477153,23 19,22.5522847 19,22 L19,16 C19,15.4477153 19.4477153,15 20,15 Z M20,8 L16,8 L16,9 L20,9 L20,8 Z" id="形状" fill="#222222"></path>
    </g>
</svg>