<?xml version="1.0" encoding="UTF-8"?>
<svg width="36px" height="36px" viewBox="0 0 36 36" version="1.1" xmlns="http://www.w3.org/2000/svg" xmlns:xlink="http://www.w3.org/1999/xlink">
    <title>icon/manage- connect</title>
    <g id="icon/manage--connect" stroke="none" stroke-width="1" fill="none" fill-rule="evenodd">
        <g id="编组-2">
            <rect id="矩形" x="0" y="0" width="36" height="36"></rect>
            <circle id="椭圆形" cx="18" cy="18" r="18"></circle>
        </g>
        <path d="M26,17 L26,21 M17.080114,28 L12.6624951,28 C11.1920397,28 10,26.6568542 10,25 L10,17" id="形状" stroke="#222222" stroke-width="2"></path>
        <path d="M20.6508602,15.3909939 C20.4245968,15.9017537 20.0507306,16.3336503 19.583486,16.6356057 C19.1283426,16.9297407 18.5842198,17.1 18,17.1 C17.4157851,17.1 16.8716717,16.92974 16.4164048,16.6356764 C15.9487422,16.3336064 15.5744261,15.9015166 15.3475667,15.3906005 L15.3475667,15.3906005 L14.4503486,13.3699516 L13.5253436,15.3780323 C13.2363246,16.0054599 12.7322694,16.4904419 12.1280165,16.7716551 C11.529438,17.0502274 10.8317283,17.1285414 10.1426524,16.9459518 C9.37154854,16.7416266 8.75623867,16.2484983 8.38614702,15.6145898 C8.02147599,14.989966 7.89548287,14.228862 8.09407604,13.4769651 C8.68724021,11.6201697 9.16721551,10.1591513 9.53412991,9.09395263 C9.76114467,8.43490021 10.0854583,7.86127353 10.5455148,7.47458388 C10.9050456,7.17238876 11.3501913,7 11.8821514,7 L11.8821514,7 L24.1178486,7 C24.6617451,7 25.1213432,7.16948989 25.4893503,7.47882808 C25.9364098,7.85461596 26.24967,8.41314401 26.4587728,9.07155893 C26.809323,10.1753587 27.2926238,11.6471129 27.9086244,13.486883 C28.1033962,14.2356022 27.9769086,14.9927328 27.613853,15.6145898 C27.2437613,16.2484983 26.6284515,16.7416266 25.8573476,16.9459518 C25.1682591,17.1285448 24.4705404,17.0502157 23.8718402,16.7716098 C23.2672368,16.4902568 22.7628014,16.0049798 22.4732184,15.3771734 L22.4732184,15.3771734 L21.546,13.369 Z" id="路径" stroke="#222222" stroke-width="2"></path>
        <path d="M24,21 L25.1111111,21 C27.2588851,21 29,22.790861 29,25 C29,27.209139 27.2588851,29 25.1111111,29 L24,29 M21,29 L19.8888889,29 C17.7411149,29 16,27.209139 16,25 C16,22.790861 17.7411149,21 19.8888889,21 L21,21" id="形状" stroke="#222222" stroke-width="2" stroke-linecap="round" stroke-linejoin="round"></path>
        <rect id="矩形备份" fill="#222222" x="19" y="24" width="7" height="2" rx="1"></rect>
    </g>
</svg>