<?xml version="1.0" encoding="UTF-8"?>
<svg width="36px" height="36px" viewBox="0 0 36 36" version="1.1" xmlns="http://www.w3.org/2000/svg" xmlns:xlink="http://www.w3.org/1999/xlink">
    <title>编组 2</title>
    <g id="页面-1" stroke="none" stroke-width="1" fill="none" fill-rule="evenodd">
        <g id="编组-2" transform="translate(18.000000, 18.000000) rotate(-90.000000) translate(-18.000000, -18.000000) translate(0.000000, 0.000000)">
            <rect id="矩形" x="0" y="0" width="36" height="36"></rect>
            <circle id="椭圆形" cx="18" cy="18" r="18"></circle>
            <path d="M17.5978229,21.6551212 C17.3619182,21.6412564 17.1299894,21.544203 16.9497475,21.363961 L16.9497475,21.363961 L11.2928932,15.7071068 C10.9023689,15.3165825 10.9023689,14.6834175 11.2928932,14.2928932 C11.6834175,13.9023689 12.3165825,13.9023689 12.7071068,14.2928932 L12.7071068,14.2928932 L17.667,19.252 L22.6272531,14.2928932 C23.0177774,13.9023689 23.6509424,13.9023689 24.0414667,14.2928932 C24.431991,14.6834175 24.431991,15.3165825 24.0414667,15.7071068 L18.3846124,21.363961 C18.2043704,21.544203 17.9724417,21.6412564 17.736537,21.6551212 Z" id="形状结合" fill="#222222"></path>
        </g>
    </g>
</svg>