<?xml version="1.0" encoding="UTF-8"?>
<svg width="36px" height="36px" viewBox="0 0 36 36" version="1.1" xmlns="http://www.w3.org/2000/svg" xmlns:xlink="http://www.w3.org/1999/xlink">
    <title>icon/order</title>
    <g id="icon/order" stroke="none" stroke-width="1" fill="none" fill-rule="evenodd">
        <path d="M22,5 C22.5522847,5 23,5.44771525 23,6 L23,7 L24.3,7 C26.279725,7 27.8928647,8.56492684 27.9948781,10.5295239 L28,10.7272727 L28,25.2727273 C28,27.2626743 26.4507224,28.891793 24.4967082,28.9948267 L24.3,29 L11.7,29 C9.72027499,29 8.10713533,27.4350732 8.00512187,25.4704761 L8,25.2727273 L8,10.7272727 C8,8.73732567 9.54927757,7.10820699 11.5032918,7.00517327 L11.7,7 L13,7 L13,6 C13,5.44771525 13.4477153,5 14,5 L22,5 Z M13,9 L11.7,9 C10.8126741,9 10.0808355,9.69205779 10.0062578,10.57792 L10,10.7272727 L10,25.2727273 C10,26.1785855 10.6851372,26.91832 11.5536381,26.9936775 L11.7,27 L24.3,27 C25.1873259,27 25.9191645,26.3079422 25.9937422,25.42208 L26,25.2727273 L26,10.7272727 C26,9.82141454 25.3148628,9.08168 24.4463619,9.00632251 L24.3,9 L23,9 L23,10 C23,10.5522847 22.5522847,11 22,11 L14,11 C13.4477153,11 13,10.5522847 13,10 L13,9 Z M20,20 C20.5522847,20 21,20.4477153 21,21 C21,21.5522847 20.5522847,22 20,22 L13,22 C12.4477153,22 12,21.5522847 12,21 C12,20.4477153 12.4477153,20 13,20 L20,20 Z M23,15 C23.5522847,15 24,15.4477153 24,16 C24,16.5522847 23.5522847,17 23,17 L13,17 C12.4477153,17 12,16.5522847 12,16 C12,15.4477153 12.4477153,15 13,15 L23,15 Z M21,7 L15,7 L15,9 L21,9 L21,7 Z" id="形状" fill="#928FA5" fill-rule="nonzero"></path>
    </g>
</svg>