<?xml version="1.0" encoding="UTF-8"?>
<svg width="28px" height="28px" viewBox="0 0 28 28" version="1.1" xmlns="http://www.w3.org/2000/svg" xmlns:xlink="http://www.w3.org/1999/xlink">
    <title>list/mark/icon+text/refunded</title>
    <g id="list/mark/icon+text/refunded" stroke="none" stroke-width="1" fill="none" fill-rule="evenodd">
        <circle id="椭圆形" fill="#F6F6F9" cx="14" cy="14" r="12"></circle>
        <path d="M11.3734202,12.9592066 C11.7639445,13.3497309 11.7639445,13.9828959 11.3734202,14.3734202 C10.9828959,14.7639445 10.3497309,14.7639445 9.95920661,14.3734202 L7.13077949,11.5449931 C6.95053751,11.3647511 6.85348414,11.1328223 6.83961937,10.8969177 L6.83961937,10.7582035 C6.85117334,10.5616163 6.92049718,10.3677901 7.04759088,10.2043354 L7.13077949,10.1101281 L9.95920661,7.28170098 C10.3497309,6.89117668 10.9828959,6.89117668 11.3734202,7.28170098 C11.7339041,7.64218494 11.7616337,8.20941599 11.4566088,8.6017072 L11.3734202,8.69591454 L10.0686194,9.99980776 L16,10 C18.7614237,10 21,12.2385763 21,15 C21,17.6887547 18.8776933,19.8818181 16.2168896,19.9953805 L16,20 L14.850336,20 C14.2980512,20 13.850336,19.5522847 13.850336,19 C13.850336,18.4871642 14.2363762,18.0644928 14.7337149,18.0067277 L14.850336,18 L16,18 C17.6568542,18 19,16.6568542 19,15 C19,13.4023191 17.75108,12.0963391 16.1762728,12.0050927 L16,12 L10.4136194,11.9998078 L11.3734202,12.9592066 Z" id="路径" fill="#928FA5"></path>
    </g>
</svg>