<?xml version="1.0" encoding="UTF-8"?>
<svg width="36px" height="36px" viewBox="0 0 36 36" version="1.1" xmlns="http://www.w3.org/2000/svg" xmlns:xlink="http://www.w3.org/1999/xlink">
    <title>icon/ship</title>
    <g id="icon/ship" stroke="none" stroke-width="1" fill="none" fill-rule="evenodd">
        <path d="M14,5.23053691 C14.5128358,5.23053691 14.9355072,5.6165771 14.9932723,6.11391578 L15,6.23053691 L14.9994232,12.1095369 L15.999,12.11 L16,10.393062 C16,9.88022619 16.3860402,9.45755487 16.8833789,9.39978976 L17,9.39306203 L27.021509,9.39306203 C27.5343448,9.39306203 27.9570162,9.77910222 28.0147813,10.2764409 L28.021509,10.393062 L28.021509,17.393062 L28.8711451,17.393062 C29.9267703,17.393062 30.7968933,18.2322555 30.7968933,19.2859034 C30.7968933,19.3576523 30.7927443,19.4293071 30.7836623,19.5049835 L30.7662418,19.6220285 L29.6824232,25.2935369 L30.4973008,24.7832646 L30.5996498,24.7269581 C31.0515824,24.5114598 31.6032623,24.664193 31.8759241,25.0985386 C32.1485859,25.5328843 32.0463533,26.096113 31.6558452,26.4094594 L31.5606501,26.4771619 L28.695529,28.2757505 L28.4909435,28.3971717 C26.8371719,29.323588 24.7864663,29.1721112 23.2867614,28.0127611 L23.1022367,27.8625981 L22.9598059,27.750193 C22.1898732,27.1921118 21.1448532,27.192418 20.3752477,27.7509503 L20.0629459,28.001543 C18.554169,29.1643147 16.4462723,29.1643147 14.9374954,28.001543 L14.6252508,27.7509994 C13.8559538,27.1927317 12.8113013,27.1927317 12.0420043,27.7509994 L11.7297597,28.001543 C10.2209827,29.1643147 8.11308608,29.1643147 6.60430914,28.001543 L6.43294648,27.8622168 L4.34964992,26.076534 L4.25948098,25.9889845 C3.92526718,25.6212431 3.9094104,25.0535561 4.24118469,24.6664861 C4.57295899,24.2794161 5.1363925,24.2082636 5.55092255,24.4823026 L5.65123267,24.5580208 L7.73452923,26.3437036 L7.87541114,26.454921 C8.40750823,26.8410561 9.07133618,26.9601145 9.6846673,26.812096 L5.14129478,20.3661374 C4.5250377,19.4944219 4.75944234,18.2994676 5.65178891,17.7126765 C5.91626364,17.5387626 6.21924991,17.4327507 6.5332381,17.4022444 L6.72273117,17.393062 L8.021509,17.393062 L8.021509,13.1108325 C8.021509,12.5979967 8.40754919,12.1753254 8.90488788,12.1175603 L9.021509,12.1108325 L9.99942317,12.1105369 L10,6.23053691 C10,5.67825216 10.4477153,5.23053691 11,5.23053691 C11.5128358,5.23053691 11.9355072,5.6165771 11.9932723,6.11391578 L12,6.23053691 L11.9994232,12.1105369 L12.9994232,12.1105369 L13,6.23053691 C13,5.67825216 13.4477153,5.23053691 14,5.23053691 Z M28.773,19.393 L6.903,19.393 L11.415342,25.7951904 C12.9042586,25.0304424 14.7488881,25.2132802 16.0677155,26.3437036 C16.8462372,27.011008 17.9744659,27.0480804 18.7918439,26.454921 L19.1040881,26.2043747 C20.6128574,25.041558 22.7206574,25.0409794 24.231338,26.2039676 L24.4029293,26.3433223 L24.5578897,26.4666048 C25.3770268,27.0713406 26.4645772,27.1682939 27.3752628,26.724574 L28.773,19.393 Z M13.4399783,21 C14.2359663,21 14.8799566,21.6559901 14.8799566,22.4659779 C14.8799566,23.2759657 14.2359663,23.9329558 13.4399783,23.9329558 C12.6449903,23.9329558 12,23.2759657 12,22.4659779 C12,21.6559901 12.6449903,21 13.4399783,21 Z M18.4399783,21 C19.2359663,21 19.8799566,21.6559901 19.8799566,22.4659779 C19.8799566,23.2759657 19.2359663,23.9329558 18.4399783,23.9329558 C17.6449903,23.9329558 17,23.2759657 17,22.4659779 C17,21.6559901 17.6449903,21 18.4399783,21 Z M23.4399783,21 C24.2359663,21 24.8799566,21.6559901 24.8799566,22.4659779 C24.8799566,23.2759657 24.2359663,23.9329558 23.4399783,23.9329558 C22.6449903,23.9329558 22,23.2759657 22,22.4659779 C22,21.6559901 22.6449903,21 23.4399783,21 Z M26.021,11.393 L17.999,11.393 L18,13.1108325 C18,13.6236684 17.6139598,14.0463397 17.1166211,14.1041048 L17,14.1108325 L10.021,14.11 L10.021509,17.393062 L26.021509,17.393062 L26.021,11.393 Z" id="形状" fill="#928FA5" fill-rule="nonzero"></path>
    </g>
</svg>