<?xml version="1.0" encoding="UTF-8"?>
<svg width="28px" height="28px" viewBox="0 0 28 28" version="1.1" xmlns="http://www.w3.org/2000/svg" xmlns:xlink="http://www.w3.org/1999/xlink">
    <title>list/mark/icon+text/to-be-paid</title>
    <g id="list/mark/icon+text/to-be-paid" stroke="none" stroke-width="1" fill="none" fill-rule="evenodd">
        <circle id="椭圆形" fill="#FFF7EC" cx="14" cy="14" r="12"></circle>
        <path d="M14,4 C19.5228475,4 24,8.4771525 24,14 C24,19.5228475 19.5228475,24 14,24 C8.4771525,24 4,19.5228475 4,14 C4,8.4771525 8.4771525,4 14,4 Z M14,6 C9.581722,6 6,9.581722 6,14 C6,18.418278 9.581722,22 14,22 C18.418278,22 22,18.418278 22,14 C22,9.581722 18.418278,6 14,6 Z M14,8.53553391 C14.5522847,8.53553391 15,8.98324916 15,9.53553391 L15,13.535 L18.4142136,13.5355339 C18.9664983,13.5355339 19.4142136,13.9832492 19.4142136,14.5355339 C19.4142136,15.0878187 18.9664983,15.5355339 18.4142136,15.5355339 L14.4142136,15.5355339 C14.3433452,15.5355339 14.2741986,15.528162 14.2074988,15.5141431 C14.1406962,15.5280892 14.0712175,15.5355339 14,15.5355339 C13.4477153,15.5355339 13,15.0878187 13,14.5355339 L13,9.53553391 C13,8.98324916 13.4477153,8.53553391 14,8.53553391 Z" id="形状" fill="#FEB900" fill-rule="nonzero"></path>
    </g>
</svg>